<svg xmlns="http://www.w3.org/2000/svg" viewBox="0 0 395.56 131.31"><defs><style>.cls-1{fill:#fff;}.cls-2{fill:#555;}.cls-3{fill:#e68f24;}.cls-4{fill:#a86b11;}</style></defs><title>esa-white</title><g id="レイヤー_2" data-name="レイヤー 2"><g id="レイヤー_1-2" data-name="レイヤー 1"><circle class="cls-1" cx="65.66" cy="65.66" r="65.66"/><path class="cls-2" d="M24.35,73.78c-2-2-3.09-5.44-3.09-9.73s1-7.69,3.09-9.72a8.76,8.76,0,0,1,6.48-2.57,8.77,8.77,0,0,1,6.49,2.57c2,2.09,3.09,5.38,3.09,9.72s-1,7.69-3.09,9.73a8.85,8.85,0,0,1-6.49,2.57A8.76,8.76,0,0,1,24.35,73.78Zm2.14-9.73c0,5.18,1.47,7.85,4.34,7.85s4.34-2.67,4.34-7.85-1.46-7.84-4.34-7.84S26.49,58.88,26.49,64.05Z"/><path class="cls-2" d="M94,73.78c-2-2-3.08-5.44-3.08-9.73s1-7.69,3.08-9.72a9.47,9.47,0,0,1,13,0c2,2.09,3.09,5.38,3.09,9.72s-1,7.69-3.09,9.73a9.47,9.47,0,0,1-13,0Zm2.15-9.73c0,5.18,1.46,7.85,4.34,7.85s4.34-2.67,4.34-7.85-1.46-7.84-4.34-7.84S96.14,58.88,96.14,64.05Z"/><circle class="cls-3" cx="65.66" cy="72.2" r="20.83"/><path class="cls-4" d="M80.43,75.55H50.88a3.35,3.35,0,0,1,0-6.7H80.43a3.35,3.35,0,0,1,0,6.7Z"/><path class="cls-1" d="M211.61,96.14s-14,.43-18.3,0c-6.25-.63-11.22-1.89-14.84-5.69s-5.41-8.76-5.41-14.92H231V65.22q0-19.55-10.48-31.62Q209.48,21,190.65,21q-18.32,0-29.14,12.26-11.2,12.8-11.2,35,0,47.45,42.82,47.45h18.48ZM175.19,49.76q4.26-9.59,15.46-9.59t15.45,9.59a25.6,25.6,0,0,1,2.14,10H173.06A25.43,25.43,0,0,1,175.19,49.76Z"/><path class="cls-1" d="M356.11,21c-1.36,0-16.27,0-17.53.09v19.6c.94-.1,15.53-.15,16.53-.15q17.16,0,17.17,14.58v4.61H350.5q-15.42,0-23.47,7.56T319,86.55q0,13,7.82,21t23.46,8q13.86,0,22.74-8.89v8h22.57V53.67Q395.56,21,356.11,21ZM372.28,80.5q0,7.11-2.12,10.31-3.89,5.86-15.72,5.86-13.26,0-13.26-10.66,0-10.49,12.9-10.48h18.2Z"/><path class="cls-1" d="M284,58.29,269.4,56.87q-9.6-.88-9.59-8Q259.81,40,273,40h37.41V21H273.31q-14.93,0-24.88,7.46-10.83,8.18-10.83,22,0,23.26,27,25.94l14.57,1.42q9.78.89,9.78,8.53Q289,96,272.6,96H239.35v19.73h32.89q17.24,0,27.9-7.47,11.37-8,11.37-22.74Q311.51,61,284,58.29Z"/></g></g></svg>