<svg xmlns="http://www.w3.org/2000/svg" viewBox="0 0 278.36 70.75"><defs><style>.cls-1{fill:#0060a9}.cls-2{fill:#353332}</style></defs><title>jquery-logo</title><g id="レイヤー_2" data-name="レイヤー 2"><g id="Layer_1" data-name="Layer 1"><path d="M107.21,63c0,.62-.06,1.25-.14,1.92l2.49-4.52-.27-1.47,2.49-.38.91,6.25,1.15-3.92a4.84,4.84,0,0,0,.15-1,3.36,3.36,0,0,0-.12-1l2.62-.49a5.57,5.57,0,0,1-.48,3.82l-2.1,5.66h-3.12l-.66-4.23-2.44,4.23h-3a59.91,59.91,0,0,0-.3-9l2.6-.4A25.06,25.06,0,0,1,107.21,63Z" class="cls-1"/><path d="M123.44,60.82c-1.21.65-1.65.9-2.75,1.57l-1.16,5.49h-2.7l1.9-9.08,2.39-.4-.1,1.26a19.29,19.29,0,0,1,2.47-1.26Z" class="cls-1"/><path d="M125,58.78l2.79-.38-2,9.48h-2.7Zm.87-4.11,2.79-.39-.62,2.87-2.76.39Z" class="cls-1"/><path d="M132.79,60.73l-1,4.65-.05.24c0,.14.07.2.26.2a4.35,4.35,0,0,0,1.47-.39l.47,1.88a6.64,6.64,0,0,1-3,.76c-1.36,0-2.06-.65-2-1.76a2.73,2.73,0,0,1,.05-.4l1.1-5.18h-1.38l.46-2.16h1.38l.46-2.24L133.8,56l-.55,2.62h2.22l-.61,2.16Z" class="cls-1"/><path d="M136,61.89c.46-2.14,1.47-3.51,4.41-3.51,1.76,0,3.07.76,3,2.33-.07,1.82-1,2.66-3.35,3.35-1.14.34-1.16.34-2,.55l-.14.65c-.07.35,0,.65.46.65a10.91,10.91,0,0,0,3.68-1l.45,1.91A9.42,9.42,0,0,1,138,68.07c-1.93,0-2.73-.84-2.67-2.43a6.18,6.18,0,0,1,.15-1.13Zm4.91-.89c0-.33-.27-.54-.76-.54-1,0-1.29.56-1.45,1.32l-.13.65c.46-.11.67-.15,1.23-.32C140.54,61.89,140.89,61.55,140.91,61Z" class="cls-1"/><path d="M150.38,54.76l2.79-.38-2.85,13.5h-2.69Z" class="cls-1"/><path d="M153.52,61.89c.45-2.14,1.46-3.51,4.4-3.51,1.76,0,3.07.76,3,2.33-.07,1.82-1,2.66-3.35,3.35-1.14.34-1.16.34-2,.55l-.14.65c-.07.35,0,.65.46.65a11,11,0,0,0,3.69-1l.44,1.91a9.42,9.42,0,0,1-4.59,1.28c-1.93,0-2.72-.84-2.67-2.43a6.25,6.25,0,0,1,.16-1.13Zm4.9-.89c0-.33-.27-.54-.76-.54-1,0-1.28.56-1.44,1.32l-.14.65c.46-.11.67-.15,1.23-.32C158.05,61.89,158.4,61.55,158.42,61Z" class="cls-1"/><path d="M161.16,67.46l.59-2a7.08,7.08,0,0,0,2.5.48c.9,0,1-.27,1.06-.71s-.17-.65-1.2-1.2c-1.92-1-2-1.72-1.67-3.12.43-2,1-2.54,3.63-2.54a9.77,9.77,0,0,1,2.75.44l-.51,2A10.18,10.18,0,0,0,166,60.5c-.8,0-.92.09-1,.59s0,.54.88,1c2.1,1.14,2.41,1.54,2.09,3-.45,2.1-1.09,2.94-3.89,2.94A7.93,7.93,0,0,1,161.16,67.46Z" class="cls-1"/><path d="M168.88,67.46l.59-2A7.14,7.14,0,0,0,172,66c.9,0,1-.27,1.05-.71s-.17-.65-1.2-1.2c-1.91-1-2-1.72-1.67-3.12.44-2,1.05-2.54,3.63-2.54a9.84,9.84,0,0,1,2.76.44l-.51,2a10.25,10.25,0,0,0-2.34-.34c-.81,0-.93.09-1,.59s0,.54.88,1c2.11,1.14,2.42,1.54,2.1,3-.46,2.1-1.1,2.94-3.89,2.94A8,8,0,0,1,168.88,67.46Z" class="cls-1"/><path d="M176.27,70l1.55-2.08h-1l.67-3.17h2.69l-.73,3.4-2.21,2.64Z" class="cls-1"/><path d="M191,67.88l0-.8a4.67,4.67,0,0,1-3,1c-2,0-2.48-1.22-2-3.31l.52-2.5c.46-2.22,1.1-3.88,5-3.88a6.81,6.81,0,0,1,1.13.09l.78-3.71,2.76-.38-2.84,13.5Zm-2.47-2.79c-.11.5,0,.73.49.73a3.33,3.33,0,0,0,2.2-1l.87-4.15a5.6,5.6,0,0,0-1-.08c-1.4,0-1.71.75-1.91,1.65Z" class="cls-1"/><path d="M195.79,65a4.81,4.81,0,0,1,.08-.65l.46-2.16c.5-2.39,1.72-3.76,5-3.76,2.51,0,3.58,1.43,3.52,3.09a3.22,3.22,0,0,1-.08.67l-.45,2.16c-.48,2.24-1.61,3.77-5,3.77C196.93,68.07,195.73,66.66,195.79,65Zm6.33-3.27c0-.68-.38-1-1.26-1a1.67,1.67,0,0,0-1.81,1.44l-.48,2.31a1.81,1.81,0,0,0,0,.38c0,.67.38,1.06,1.26,1.06a1.67,1.67,0,0,0,1.81-1.44l.48-2.31A3,3,0,0,0,202.12,61.68Z" class="cls-1"/><path d="M221.28,61.55a1.18,1.18,0,0,0,.05-.29c0-.19-.09-.26-.35-.26a8.07,8.07,0,0,0-2.46.89l-1.26,6h-2.68l1.33-6.33a2,2,0,0,0,.05-.29c0-.19-.09-.26-.36-.26a7.92,7.92,0,0,0-2.44.88l-1.26,6h-2.69l1.9-9.08,2.39-.4-.06,1a9,9,0,0,1,3.71-1,1.42,1.42,0,0,1,1.57,1.09,7.53,7.53,0,0,1,3.8-1.09c1.25,0,1.68.7,1.64,1.89a5.43,5.43,0,0,1-.14,1.07l-1.37,6.54H220Z" class="cls-1"/><path d="M225.06,65a4.81,4.81,0,0,1,.08-.65l.46-2.16c.5-2.39,1.72-3.76,5-3.76,2.5,0,3.58,1.43,3.52,3.09a3.22,3.22,0,0,1-.08.67l-.45,2.16c-.48,2.24-1.61,3.77-5,3.77C226.2,68.07,225,66.66,225.06,65Zm6.33-3.27c0-.68-.38-1-1.26-1a1.67,1.67,0,0,0-1.81,1.44l-.48,2.31a3,3,0,0,0-.06.38c0,.67.39,1.06,1.27,1.06a1.67,1.67,0,0,0,1.81-1.44l.48-2.31A3,3,0,0,0,231.39,61.68Z" class="cls-1"/><path d="M241.25,60.82c-1.21.65-1.66.9-2.75,1.57l-1.17,5.49h-2.69l1.9-9.08,2.38-.4-.1,1.26a20,20,0,0,1,2.47-1.26Z" class="cls-1"/><path d="M241.86,61.89c.46-2.14,1.46-3.51,4.41-3.51,1.75,0,3.07.76,3,2.33-.06,1.82-1,2.66-3.35,3.35-1.14.34-1.16.34-2,.55l-.13.65c-.07.35-.05.65.45.65a10.9,10.9,0,0,0,3.69-1l.45,1.91a9.42,9.42,0,0,1-4.6,1.28c-1.93,0-2.72-.84-2.66-2.43a6.18,6.18,0,0,1,.15-1.13Zm4.91-.89c0-.33-.27-.54-.77-.54-1,0-1.28.56-1.44,1.32l-.14.65c.47-.11.68-.15,1.24-.32C246.39,61.89,246.75,61.55,246.77,61Z" class="cls-1"/><path d="M250.38,64.71h2.7l-.67,3.17h-2.69Z" class="cls-1"/><path d="M3.27,13.44c-4.56,6.55-4,15.07-.51,22,.08.17.17.34.26.5a2.39,2.39,0,0,0,.16.32l.1.17.18.33.33.57.2.31c.12.2.25.4.38.6s.11.17.17.26c.17.27.35.54.55.8a0,0,0,0,0,0,0l.09.13.51.68.19.24.47.58.18.22c.21.25.43.5.66.74v0l0,0,.66.7.22.21c.17.18.34.35.53.52l.22.21c.24.23.47.45.72.66h0l.12.11.66.56.27.22.56.43.3.22.61.45.23.16.06,0,.6.4.26.17.94.58.26.15c.24.13.47.27.71.39l.39.21.51.26.11,0,.21.1.81.38.16.07c.31.14.62.26.94.39l.22.09.89.33.1,0,1,.32.24.07a9.51,9.51,0,0,0,1,.28c22,4,28.44-13.24,28.44-13.24-5.38,7-14.93,8.85-24,6.8-.33-.08-.66-.19-1-.29L25,44l-1-.32-.14,0L23,43.28l-.24-.1c-.32-.12-.62-.25-.93-.38l-.18-.08-.78-.37-.23-.11-.6-.3-.4-.21-.73-.4a1.16,1.16,0,0,0-.24-.14l-.94-.58-.26-.17L16.84,40l-.22-.15L16,39.38l-.28-.21-.57-.44-.25-.21c-.25-.2-.48-.39-.71-.6l-.09-.06-.74-.69-.21-.2-.54-.52-.21-.22c-.23-.22-.45-.46-.66-.7l0,0L11,34.74l-.18-.21-.48-.59-.18-.23c-.19-.24-.37-.49-.55-.74-5-6.84-6.83-16.29-2.82-24" class="cls-1"/><path d="M17.42,7.92C14.11,12.67,14.3,19,16.87,24a20,20,0,0,0,1.45,2.43A11.63,11.63,0,0,0,20,28.58c.23.26.48.51.74.77.06.06.13.12.19.19l.76.7,0,0h0c.28.25.57.5.88.73l.2.16.92.68h0c.13.1.28.19.42.28l.2.13c.22.15.45.29.68.42l.1,0c.19.12.4.24.6.34l.22.12.42.22.07,0,.87.41.2.08.72.29.31.11.67.23.3.1a7.58,7.58,0,0,0,1,.28c17,2.82,20.94-10.28,20.94-10.28-3.54,5.1-10.4,7.53-17.71,5.63-.33-.08-.65-.18-1-.28l-.28-.09-.68-.23-.31-.12-.72-.29-.19-.08-.89-.41-.45-.23L29,28.43c-.2-.1-.38-.21-.57-.32L28.31,28c-.23-.14-.47-.28-.68-.42l-.21-.14L27,27.19l-.91-.67-.21-.17a20.42,20.42,0,0,1-7-9.9A15.36,15.36,0,0,1,20.1,4.12" class="cls-1"/><path d="M29.31,3.8a9.9,9.9,0,0,0-.79,9.57,13.46,13.46,0,0,0,7.73,7.22l.42.15.19.06c.2.06.4.14.6.18,9.4,1.81,11.94-4.83,12.63-5.8-2.24,3.21-6,4-10.59,2.87a11,11,0,0,1-1.11-.35,13.81,13.81,0,0,1-1.33-.55,13.34,13.34,0,0,1-2.31-1.41c-4.12-3.13-6.68-9.09-4-13.94" class="cls-1"/><path d="M247,17.2l.37,1.55a.62.62,0,0,1-.63.81" class="cls-2"/><path d="M217.36,14.52c-.09.43-.21,1-.28,1.34l-3.25,15.21,3.42-16Z" class="cls-2"/><polygon points="119.96 24.7 118.17 31.06 119.96 24.71 119.96 24.7" class="cls-2"/><path d="M247.36,18.75l-.93-4c-.74-2.87-2.84-4.22-7.54-4.22h-19.8a.93.93,0,0,0-1,.65l-7.51,35.61a2.28,2.28,0,0,0-.07,1c.05.23.93.18,1.38.18h6.86a7.14,7.14,0,0,0,1.53-.06c.25-.1.37-.78.46-1.23l2.42-12.49,3-13.85a1.09,1.09,0,0,1,1-.81h19.61a.62.62,0,0,0,.63-.81" class="cls-2"/><path d="M275.26,4.31c-.46,0-8.7,0-8.7,0a2,2,0,0,0-1.29.87L250,27.64c-.26.37-.55.36-.65-.08l-1.13-4.93a1.09,1.09,0,0,0-1-.81h-9.81a.61.61,0,0,0-.6.82l4.4,15.42a3.75,3.75,0,0,1,0,1.6l-2.05,7.81c-.11.44.17.58.64.58h9.68c.46,0,.93-.14,1-.58l2-7.92a4.77,4.77,0,0,1,.7-1.41l24.91-33c.28-.36.24-.8-.21-.8Z" class="cls-2"/><path d="M173.12,10.6h-8.85c-.45,0-.92.16-1,.61L160.34,24.9,157.42,38c-.09.44-.54.41-1,.41H150.6c-5.75,0-5.09-3.64-3.91-9.09,0,0,3.7-18.12,3.7-18.12.08-.45-.22-.61-.67-.61h-8.44c-.45,0-.9.16-1,.61l-3.4,18.11c-1.69,9.79-1.74,18.41,9.62,18.7h17.93c.46,0,.91-.15,1-.6l3.85-18.16L173.14,11S173.27,10.6,173.12,10.6Z" class="cls-2"/><path d="M84.94,10.57H75.45c-.46,0-.92.11-1,.55l-1.71,7.42a.62.62,0,0,0,.65.78h9.09a1.13,1.13,0,0,0,1-.85L85.12,11S85.25,10.57,84.94,10.57Z" class="cls-2"/><path d="M72.75,21.82a1.09,1.09,0,0,0-1,.81l-1.28,5.65L67.61,41.34s-1.52,6.94-1.67,7.37c0,0-1.28,5-4.33,4.81a26.63,26.63,0,0,1-3-.42h0c-.86-.26-.92.63-1,1.07l-1.89,8.14a.66.66,0,0,0,.64.85,62.66,62.66,0,0,0,7,.57h.47c7.13,0,10.9-4.19,13.31-15.57L79.86,35,82.5,22.73a.66.66,0,0,0-.62-.86" class="cls-2"/><path d="M195.52,10.51c-16,0-19.78,9.87-21.9,19.65C171.5,40.14,171.69,48,188.21,48h15.11a1.13,1.13,0,0,0,1-.86l1.62-6.33c.09-.45-.21-.58-.66-.58H190.41c-5.38,0-7.31-1.66-7.12-5.38,0-.42.48-1.5.94-1.5h22.88c1,0,1-.59,1-.59,2.33-10.52,2.48-22.27-12.63-22.27m4.21,15.67c0,.5-1.56.4-1.56.4l-12.45-.09c-.43,0-.55-.6-.58-1a4.72,4.72,0,0,1,.07-.64c1-3.34,3.83-5.25,8.38-5.25,5.12,0,6.21,2.54,6.21,5.36" class="cls-2"/><path d="M126.52,37.73S131,26.86,132,20.59C133.39,12.18,129.19,0,112.94,0S89.77,11.63,87.09,24.28,87.92,48.11,104,48l24.52,0a1.15,1.15,0,0,0,1-.8l2.07-7.87a.63.63,0,0,0-.63-.81H127a.5.5,0,0,1-.56-.59.61.61,0,0,1,0-.18m-8.44-6.67-1.84,6.29a1.17,1.17,0,0,1-1.1.74h-9.49c-7.21,0-9-5.57-7.21-13.88,1.76-8.49,5.25-13.74,12.33-14.27,9.69-.73,11.67,6.11,9.32,14Z" class="cls-2"/></g></g></svg>