<svg xmlns="http://www.w3.org/2000/svg" viewBox="0 0 547.77 410.59"><defs><style>.cls-1{fill:#fff;}</style></defs><title>sass-white</title><g id="レイヤー_2" data-name="レイヤー 2"><g id="Layer_1" data-name="Layer 1"><path class="cls-1" d="M471.42,236a112.63,112.63,0,0,0-49.63,11.55c-5.08-10.15-10.23-19.07-11.09-25.71-1-7.75-2.18-12.37-1-21.6s6.56-22.3,6.48-23.28-1.2-5.68-12.24-5.76-20.49,2.12-21.6,5a109.19,109.19,0,0,0-4.56,16.32c-1.94,10-22.05,45.72-33.47,64.41-3.73-7.3-6.91-13.73-7.57-18.81-1-7.75-2.18-12.37-1-21.6s6.56-22.3,6.48-23.28-1.2-5.68-12.24-5.76-20.49,2.12-21.6,5-2.3,9.73-4.56,16.32-29,66.16-36,81.6c-3.57,7.87-6.68,14.19-8.87,18.5v0l-.37.77c-1.88,3.68-3,5.71-3,5.71l0,.08c-1.49,2.69-3.08,5.2-3.87,5.2-.55,0-1.66-7.18.24-17,4-20.66,13.53-52.89,13.44-54-.05-.57,1.77-6.18-6.24-9.12-7.8-2.85-10.57,1.91-11.28,1.92s-1.2,1.68-1.2,1.68,8.68-36.24-16.56-36.24c-15.78,0-37.65,17.26-48.42,32.91C175,244.53,160.45,252.47,145,261L127.3,270.7c-.39-.44-.77-.87-1.18-1.3-30.6-32.65-87.18-55.75-84.78-99.65.87-16,6.42-58,108.72-109C233.86,19,300.94,30.52,312.54,56c16.56,36.38-35.86,104-122.88,113.76-33.16,3.72-50.62-9.13-55-13.92-4.57-5-5.26-5.27-7-4.32-2.78,1.54-1,6,0,8.64,2.6,6.76,13.26,18.75,31.44,24.72,16,5.25,54.92,8.13,102-10.08,52.73-20.4,93.9-77.13,81.81-124.56C330.69,2,250.71-13.86,175,13,130,29,81.2,54.15,46.14,87,4.45,126-2.2,159.89.54,174.07c9.73,50.39,79.19,83.21,107,107.53l-3.83,2.11c-13.95,6.9-66.89,34.6-80.13,63.88-15,33.21,2.39,57,13.92,60.24,35.72,9.94,72.37-7.94,92.07-37.32s17.29-67.62,8.25-85.08c-.11-.22-.24-.43-.35-.64,3.6-2.14,7.27-4.3,10.91-6.44,7.09-4.17,14.06-8.05,20.11-11.34-3.39,9.26-5.86,20.38-7.15,36.42-1.52,18.85,6.21,43.21,16.32,52.8,4.45,4.22,9.8,4.32,13.2,4.32,11.76,0,17.13-9.79,23-21.36,7.25-14.2,13.68-30.72,13.68-30.72s-8.08,44.64,13.92,44.64c8,0,16.07-10.39,19.66-15.69l0,.09s.21-.34.61-1c.84-1.27,1.31-2.08,1.31-2.08s0-.08,0-.23c3.22-5.59,10.36-18.34,21.08-39.37,13.84-27.17,27.12-61.2,27.12-61.2a180.7,180.7,0,0,0,5.28,22.08c2.38,8.1,7.43,17.05,11.42,25.63-3.21,4.45-5.18,7-5.18,7l.05.13c-2.57,3.41-5.44,7.09-8.45,10.67-10.93,13-23.94,27.87-25.68,32.16-2.06,5.05-1.57,8.77,2.4,11.76,2.9,2.18,8.05,2.52,13.44,2.16a61.1,61.1,0,0,0,20.13-4.58,67.82,67.82,0,0,0,17.31-9.1c10.72-7.88,17.18-19.15,16.56-34.08-.35-8.23-3-16.38-6.29-24.08q1.46-2.1,2.93-4.24a458.46,458.46,0,0,0,30-51.84,180.7,180.7,0,0,0,5.28,22.08c2,7,6.08,14.56,9.72,22-15.89,12.91-25.74,27.91-29.16,37.75-6.33,18.2-1.37,26.44,7.92,28.32,4.21.85,10.15-1.08,14.62-3a67.94,67.94,0,0,0,18.5-9.51c10.72-7.88,21-18.91,20.4-33.84a63.66,63.66,0,0,0-4.63-20c13.47-5.61,30.9-8.73,53.11-6.14,47.64,5.56,57,35.31,55.2,47.76S524.44,322,521.1,324.07s-4.36,2.78-4.08,4.32c.4,2.24,2,2.15,4.8,1.67,3.92-.66,25-10.13,25.92-33.11C548.88,267.77,520.93,235.73,471.42,236ZM104.21,359.79C88.43,377,66.38,383.51,56.93,378c-10.21-5.92-6.17-31.26,13.2-49.53,11.8-11.13,27-21.39,37.14-27.7l9.79-5.88,1.07-.61,0,0,2.45-1.46C127.6,318.83,120.77,341.72,104.21,359.79Zm115-78.15c-5.5,13.4-17,47.67-24,45.84-6-1.58-9.67-27.64-1.2-53.28,4.26-12.91,13.37-28.34,18.72-34.32,8.61-9.64,18.09-12.79,20.4-8.88C236,236,222.61,273.24,219.17,281.64Zm95,45.32c-2.33,1.21-4.47,2-5.46,1.39-.73-.44,1-2,1-2s11.88-12.78,16.56-18.6c2.72-3.39,5.87-7.4,9.31-11.9,0,.45.05.9.05,1.34C335.53,312.46,320.74,322.8,314.15,327Zm73.16-16.68c-1.73-1.24-1.45-5.24,4.27-17.69a66.74,66.74,0,0,1,16.26-21,30.28,30.28,0,0,1,1.65,9.23C409.37,300.09,395.63,307.29,387.31,310.28Z"/></g></g></svg>